<svg width="42" height="39" viewBox="0 0 42 39" fill="none" xmlns="http://www.w3.org/2000/svg">
<path d="M15.4963 18.3152C15.3064 18.4442 15.0935 18.5353 14.869 18.5836C14.6663 18.624 14.46 18.6446 14.2533 18.6451C14.1557 18.6451 14.0593 18.6451 13.9676 18.6393C13.8758 18.6335 13.7817 18.6335 13.6922 18.6335H13.583C13.2012 18.6335 12.8256 18.6192 12.4562 18.5905C12.0868 18.5619 11.7111 18.5317 11.3293 18.4999C11.0441 18.4814 10.765 18.4089 10.5069 18.2862C10.3742 18.2101 10.2586 18.1074 10.1673 17.9847C10.0759 17.862 10.0108 17.7218 9.97597 17.5729C9.87747 17.2777 9.74035 16.9969 9.56821 16.7376C9.39318 16.4736 9.22474 16.2075 9.06288 15.9396C8.77865 15.4439 8.49017 14.9502 8.19743 14.4584C7.90468 13.9666 7.60383 13.4729 7.29482 12.9773C7.20576 12.8394 7.11241 12.7093 7.01483 12.5869C6.91724 12.4708 6.83248 12.3546 6.75929 12.257C6.52695 12.4685 6.29961 12.6698 6.07734 12.8611C5.85507 13.0524 5.64405 13.2495 5.44424 13.4524C5.26518 13.6257 5.13291 13.8415 5.05973 14.0797C4.98947 14.319 4.9585 14.5681 4.96798 14.8174C4.98424 15.0776 4.99237 15.3336 4.99237 15.5852C4.99218 15.842 4.97589 16.0985 4.94359 16.3531C4.90332 16.7272 4.84866 17.095 4.77973 17.4567C4.7108 17.8184 4.64384 18.1777 4.57879 18.5348C4.17782 18.6158 3.76915 18.6524 3.36017 18.644C3.09995 18.644 2.82579 18.6339 2.53769 18.6138C2.24959 18.5936 1.96535 18.563 1.685 18.522C1.40465 18.4809 1.13055 18.4322 0.86259 18.3756C0.61154 18.3235 0.36336 18.2584 0.119094 18.1805C0.135358 17.7987 0.153554 17.4114 0.17369 17.0188C0.193826 16.6261 0.212022 16.2358 0.228286 15.8478C0.236805 15.4505 0.241048 15.0567 0.241048 14.6663C0.241048 14.276 0.232921 13.8861 0.216658 13.4965C0.200394 12.8305 0.180256 12.166 0.156248 11.5031C0.13224 10.8401 0.111741 10.1761 0.0947033 9.51079C0.0784398 9.07245 0.0703125 8.63179 0.0703125 8.1888C0.0703125 7.74581 0.0823234 7.3009 0.106332 6.85404C0.138859 6.20427 0.183379 5.55643 0.239914 4.91053C0.296449 4.26464 0.349096 3.6168 0.397887 2.96703C0.430414 2.56044 0.45868 2.15422 0.482688 1.74841C0.506696 1.34259 0.535322 0.920123 0.568623 0.481006L2.25081 0.298642C2.47076 0.273859 2.69026 0.247535 2.90944 0.219655C3.12861 0.191775 3.34782 0.169299 3.567 0.152261C3.63369 0.144315 3.70077 0.140425 3.76794 0.140633H3.96888C4.18964 0.140504 4.40937 0.171002 4.62176 0.231248C4.86692 0.310652 5.09014 0.446316 5.2735 0.627386C5.18367 1.78907 5.09031 2.98136 4.99351 4.20423C4.8967 5.42709 4.7991 6.68828 4.70074 7.98782C5.16542 7.36826 5.60227 6.77734 6.01118 6.21509C6.4201 5.65283 6.83631 5.09407 7.25994 4.53878C7.67242 4.00495 8.11171 3.49238 8.57612 3.00305C8.85024 2.70548 9.10666 2.39204 9.34401 2.06439C9.58216 1.73475 9.7825 1.37938 9.94116 1.00495C9.99645 0.856366 10.0888 0.724377 10.2095 0.621572C10.3309 0.525214 10.4808 0.471732 10.6358 0.469413C11.1067 0.453149 11.578 0.424489 12.0496 0.383442C12.5213 0.342396 12.9967 0.322258 13.4761 0.323033C13.8591 0.322659 14.2418 0.347092 14.6216 0.396205C14.9949 0.444996 15.3728 0.501922 15.7554 0.566976C15.7029 0.685882 15.6582 0.808128 15.6217 0.93291C15.5948 1.03612 15.5448 1.13185 15.4754 1.21287C14.9395 1.81463 14.4074 2.40787 13.8792 2.99259L12.2819 4.75951C12.1766 4.87335 12.0771 4.98951 11.9834 5.108C11.8897 5.22649 11.7983 5.3566 11.7092 5.49832C11.3994 5.93667 11.0989 6.37543 10.8077 6.81454C10.5165 7.25366 10.2068 7.6885 9.87841 8.1191C9.77182 8.24613 9.70225 8.40007 9.6774 8.56402C9.6759 8.73105 9.73448 8.89307 9.84239 9.02057C10.0616 9.33035 10.2768 9.64012 10.4883 9.9499C10.6997 10.2597 10.903 10.5765 11.0982 10.9002C11.3987 11.3881 11.6891 11.8818 11.9694 12.3813C12.2498 12.8809 12.5402 13.3746 12.8407 13.8625C13.1892 14.4309 13.5443 14.9916 13.9059 15.5446C14.2676 16.0975 14.6231 16.6544 14.9724 17.2151C15.0781 17.3859 15.1698 17.565 15.2465 17.7506C15.3232 17.9423 15.4069 18.1282 15.4963 18.3152Z" fill="black"/>
<path d="M21.8458 3.94625V7.49288C21.962 7.49288 22.2071 7.4929 22.5893 7.48012C22.9715 7.46734 23.4397 7.4592 23.9973 7.4441L25.856 7.3895L27.94 7.32792L30.0241 7.26751L31.8886 7.21292L33.314 7.17109C33.7012 7.15869 33.9572 7.15251 34.0819 7.15251C34.1239 7.14404 34.1667 7.13978 34.2096 7.13975H34.7766C35.0422 7.70967 35.2031 8.32272 35.2517 8.94963C35.2925 9.5401 35.2471 10.1334 35.1169 10.7107C34.7514 10.703 34.406 10.6991 34.0807 10.6991C33.7555 10.6991 33.4344 10.6949 33.1176 10.6863L32.6971 10.6922L31.6923 10.7038L30.2599 10.7165L28.5662 10.7293L26.7737 10.7421C26.1688 10.746 25.5942 10.7479 25.0498 10.7479H23.801C23.4137 10.7479 23.0764 10.7437 22.7891 10.7352C22.501 10.727 22.2699 10.7189 22.0921 10.7107C21.9913 10.7138 21.8906 10.7013 21.7936 10.6736C21.745 11.0413 21.7306 11.4126 21.7506 11.783C21.7707 12.1485 21.7974 12.5141 21.8307 12.8796C21.864 13.2452 21.8904 13.6107 21.9098 13.9762C21.9296 14.3474 21.9069 14.7196 21.8423 15.0857C21.8826 15.0779 22.173 15.0679 22.7136 15.0555L24.8221 15.0066L27.7716 14.9393L31.1533 14.8661L34.5663 14.7929C35.6869 14.7681 36.7003 14.748 37.6064 14.7325C38.5125 14.717 39.2661 14.705 39.867 14.6965C40.468 14.6887 40.8297 14.6845 40.9521 14.6837C41.1274 14.6804 41.3027 14.6925 41.476 14.7197C41.5888 14.7363 41.6946 14.7851 41.7804 14.8603C41.86 14.9422 41.913 15.0463 41.9325 15.1588C41.9641 15.3277 41.9781 15.4994 41.9744 15.6712C41.9829 16.142 41.9829 16.6113 41.9744 17.0791C41.9658 17.5469 41.9558 18.0363 41.9442 18.5475H40.2992C39.4047 18.5637 38.5141 18.5757 37.6273 18.5835C36.7406 18.5912 35.85 18.5955 34.9555 18.5963C34.1353 18.5963 33.3222 18.592 32.516 18.5835C31.7097 18.575 30.8965 18.5707 30.0764 18.5707H29.2841C28.4957 18.5785 27.7158 18.5967 26.9445 18.6253C26.1731 18.654 25.3928 18.6764 24.6037 18.6927C24.2164 18.7004 23.8265 18.7047 23.4338 18.7055H22.2443C21.5055 18.7217 20.7662 18.7318 20.0266 18.7357C19.287 18.7395 18.5436 18.7457 17.7962 18.7543C17.7659 18.7537 17.7356 18.7557 17.7056 18.7601C17.6752 18.764 17.6445 18.7659 17.6139 18.7659C17.5686 18.7668 17.5233 18.7625 17.4791 18.7531C17.2942 18.7618 17.1118 18.7082 16.961 18.6009C16.8564 18.4497 16.811 18.2653 16.8332 18.0828C16.841 16.9049 16.8471 15.7327 16.8518 14.5664C16.8564 13.4 16.8665 12.2279 16.882 11.05C16.8897 10.5621 16.9102 10.0807 16.9435 9.60599C16.9768 9.13124 16.9892 8.65379 16.9807 8.17363C16.9722 7.58891 16.9497 7.00383 16.9133 6.41834C16.8769 5.83285 16.8467 5.24388 16.8227 4.65142C16.7979 4.0427 16.7797 3.43549 16.7681 2.82987C16.7565 2.22424 16.7464 1.61708 16.7379 1.00836C16.7041 0.761908 16.7674 0.511954 16.9145 0.311338C17.1146 0.160596 17.3613 0.0849527 17.6115 0.0975988C17.9213 0.0813352 18.2342 0.0712662 18.5501 0.0673939C18.8661 0.0635216 19.1786 0.0573362 19.4876 0.0488171C19.72 0.0410726 20.1304 0.0329453 20.719 0.0244263C21.3076 0.0159073 22.0085 0.00968638 22.8217 0.0058141C23.6379 0.00194181 24.5436 0 25.5388 0H31.4216C32.3603 0 33.2683 0.00194181 34.1457 0.0058141L36.6201 0.0174423L38.6671 0.0302049C39.2603 0.0340772 39.7458 0.0402981 40.1238 0.0488171C40.5017 0.0573362 40.7341 0.0654634 40.8208 0.073208C40.9931 0.077525 41.1575 0.146249 41.2816 0.265818C41.4056 0.385387 41.4804 0.547118 41.4911 0.719104C41.5476 1.10633 41.6026 1.49356 41.6561 1.88079C41.7095 2.26802 41.7482 2.65525 41.7722 3.04247C41.7868 3.14731 41.7774 3.25409 41.7446 3.35473C41.7118 3.45537 41.6565 3.54723 41.5829 3.62332C41.3973 3.76906 41.1671 3.84657 40.9312 3.84287C40.8413 3.85139 40.5064 3.85757 39.9263 3.86145L37.7191 3.88006C36.8292 3.8878 35.826 3.89399 34.7092 3.89864C33.5925 3.90328 32.4571 3.90947 31.3031 3.91721C30.1492 3.92496 29.0177 3.93114 27.9087 3.93579L24.929 3.94859C24.0523 3.95246 23.3332 3.9544 22.7717 3.9544L21.8458 3.94625Z" fill="black"/>
<path d="M2.79436 34.9271C3.03753 34.8497 3.24702 34.7796 3.42283 34.7168C3.59863 34.6541 3.76901 34.5976 3.93397 34.5472C4.19767 34.56 4.46486 34.5809 4.73785 34.6076C5.01467 34.6341 5.29302 34.6407 5.57078 34.6274C6.36847 34.5902 7.1619 34.5817 7.95107 34.6018C8.74025 34.622 9.53406 34.6568 10.3325 34.7064C10.9459 34.7397 11.5546 34.7478 12.1587 34.7308C12.7628 34.7137 13.3715 34.7137 13.9849 34.7308C15.1334 34.7416 16.2726 34.7238 17.4025 34.6773C18.5325 34.6309 19.6671 34.5709 20.8063 34.4973C21.422 34.4578 22.0307 34.4462 22.6324 34.4624C23.2342 34.4787 23.848 34.4872 24.4737 34.488C24.5361 34.5875 24.5806 34.6972 24.605 34.8121C24.6244 34.9159 24.6341 35.0213 24.634 35.1269C24.6338 35.2859 24.619 35.4446 24.5899 35.6009C24.5607 35.7541 24.5459 35.9096 24.5457 36.0656V36.1748C24.5557 36.2358 24.5607 36.2976 24.5608 36.3595V36.5546C24.5608 36.7273 24.5558 36.902 24.5457 37.0786C24.5357 37.2551 24.531 37.4302 24.5318 37.6036V37.7477C24.5321 37.7964 24.5368 37.845 24.5457 37.8929V37.9823C24.5457 38.1752 24.4873 38.2952 24.3703 38.3425C24.1527 38.3963 23.9271 38.4097 23.7047 38.382C23.4119 38.3687 23.1186 38.3839 22.8288 38.4273C22.5368 38.4706 22.2444 38.5055 21.9517 38.5318C21.6303 38.5651 21.3089 38.5984 20.9875 38.6317C20.6661 38.665 20.3447 38.6883 20.0233 38.7014C19.1559 38.7347 18.2963 38.7614 17.4444 38.7816C16.5925 38.8017 15.7363 38.8149 14.8759 38.8211C14.2339 38.8211 13.5934 38.806 12.9545 38.7758C12.3155 38.7456 11.675 38.7173 11.033 38.691C10.5947 38.6778 10.1587 38.6577 9.72497 38.6306C9.29127 38.6035 8.85525 38.5868 8.41691 38.5806C7.75475 38.5674 7.09995 38.564 6.4525 38.5702C5.80506 38.5764 5.15025 38.5764 4.48809 38.5702C4.38006 38.5702 4.27086 38.5702 4.15934 38.5702C4.04952 38.5735 3.93962 38.5685 3.83058 38.5551C3.54686 38.5546 3.2676 38.4844 3.0174 38.3506C2.93916 38.2786 2.87918 38.189 2.84242 38.0892C2.80566 37.9894 2.79316 37.8823 2.80597 37.7767C2.7959 37.5769 2.79087 37.3771 2.79087 37.1773V34.9271H2.79436Z" fill="black"/>
<path d="M5.41745 34.7635H9.96421C10.1509 34.7635 10.3337 34.7615 10.5126 34.7577C10.6915 34.7538 10.8742 34.7518 11.0609 34.7518C11.177 34.7518 11.2932 34.7518 11.4094 34.7577C11.5255 34.7635 11.6417 34.7681 11.7684 34.7762C11.9147 34.7798 12.0601 34.8005 12.2016 34.8378C12.297 34.8615 12.3824 34.9148 12.4456 34.99C12.5024 35.0704 12.5343 35.1657 12.5374 35.2642C12.5437 35.411 12.5356 35.558 12.513 35.7033C12.4479 36.1679 12.391 36.6252 12.3423 37.0752C12.2935 37.5252 12.2407 37.9616 12.1842 38.3844C11.5499 38.3682 10.9366 38.3562 10.3441 38.3484C9.75166 38.3407 9.15844 38.3287 8.56443 38.3124C8.15784 38.2961 7.75781 38.2779 7.36439 38.2578C6.97058 38.2369 6.57448 38.2276 6.17718 38.2276H5.83564C5.12004 38.2439 4.40521 38.2745 3.69116 38.3194C2.97711 38.3643 2.26191 38.4112 1.54554 38.46C1.49327 38.4681 1.4404 38.4724 1.3875 38.4727H1.25392C1.14277 38.4879 1.02965 38.4777 0.923009 38.4429C0.81637 38.4081 0.719031 38.3496 0.63826 38.2717C0.509236 38.0304 0.448158 37.7586 0.461639 37.4853C0.421367 36.6001 0.384974 35.7246 0.352447 34.8587C0.31992 33.9929 0.283527 33.1216 0.243255 32.2449C0.210728 31.6927 0.172034 31.1464 0.127115 30.6058C0.0821968 30.0652 0.0434314 29.5188 0.0109043 28.9666C-0.00537086 28.7345 -0.0034231 28.5015 0.0167184 28.2697C0.0368542 28.0373 0.0550506 27.805 0.0713141 27.5726C0.0794459 27.4832 0.0852441 27.3937 0.0898909 27.3043C0.0945376 27.2148 0.095705 27.1254 0.095705 27.0359C0.0794414 26.8036 0.0593033 26.5712 0.0352951 26.3389C0.0107658 26.1074 0.00261831 25.8745 0.0109043 25.6419C0.0186488 24.8783 0.0330324 24.1228 0.0539428 23.3755C0.0748531 22.6281 0.0887349 21.8722 0.095705 21.1079C0.100427 20.9029 0.135321 20.6997 0.199153 20.5049C0.260438 20.3303 0.384714 20.1849 0.547645 20.0972H3.49716C3.53786 20.0975 3.5779 20.0871 3.6133 20.067C3.64843 20.0467 3.68982 20.0401 3.72952 20.0484C3.98121 20.0724 4.18641 20.0968 4.34517 20.1216C4.48045 20.1376 4.60994 20.1858 4.72273 20.2621C4.82407 20.3442 4.89483 20.4579 4.92367 20.5851C4.97276 20.7889 5.0016 20.9971 5.00968 21.2066C5.03369 21.7348 5.04182 22.2606 5.03407 22.7842C5.02633 23.3077 5.02208 23.8378 5.02131 24.3745C5.02131 24.5612 5.02944 24.752 5.0457 24.9472C5.06196 25.1424 5.07009 25.3375 5.07009 25.5281C5.06235 26.0152 5.05033 26.4965 5.03407 26.972C5.01781 27.4476 5.01356 27.925 5.02131 28.4044C5.03757 28.9814 5.05383 29.5564 5.07009 30.1295C5.08635 30.7026 5.11498 31.2772 5.15603 31.8534C5.18778 32.3328 5.23036 32.8122 5.28379 33.2916C5.33723 33.771 5.38182 34.2616 5.41745 34.7635Z" fill="black"/>
<path d="M31.5948 38.6749C30.7499 38.7075 29.9231 38.7361 29.1146 38.7609C28.306 38.7857 27.4956 38.8058 26.6832 38.8213C26.531 38.8188 26.3795 38.8005 26.2312 38.7667C26.0837 38.7433 25.9497 38.6674 25.8537 38.5529C25.8278 38.5264 25.8074 38.495 25.7939 38.4604C25.7803 38.4259 25.7738 38.389 25.7747 38.352C25.7803 38.2774 25.8008 38.2047 25.8351 38.1382C25.8732 38.0629 25.9183 37.9913 25.9699 37.9245C26.0221 37.8559 26.0698 37.7886 26.1093 37.7235C26.4748 37.1465 26.8426 36.5777 27.2128 36.017C27.583 35.4563 27.9315 34.8793 28.2583 34.2861C28.6394 33.579 28.9948 32.8661 29.3247 32.1474C29.6547 31.4287 29.994 30.7077 30.3425 29.9843C30.3831 29.903 30.4273 29.8241 30.4761 29.752C30.5245 29.6759 30.5576 29.591 30.5736 29.5022C30.5903 29.3931 30.5945 29.2824 30.5864 29.1723C30.5802 29.0673 30.5555 28.9643 30.5132 28.868C30.2809 28.4536 30.033 28.0513 29.7697 27.661C29.5117 27.2748 29.2874 26.8671 29.0994 26.4424C28.9533 26.1261 28.7886 25.8189 28.6058 25.5223C28.423 25.2257 28.234 24.9353 28.0388 24.651C27.8437 24.3668 27.6501 24.0845 27.458 23.8042C27.2628 23.5238 27.08 23.2334 26.9096 22.9329C26.6904 22.5588 26.4753 22.1832 26.2638 21.8061C26.0524 21.4289 25.8289 21.0247 25.5935 20.5933C25.894 20.5445 26.1724 20.4938 26.4288 20.4411C26.6801 20.3891 26.9347 20.3545 27.1908 20.3377C27.6462 20.3137 28.0972 20.2974 28.5441 20.2889C28.991 20.2804 29.4418 20.2762 29.8964 20.2762C30.0553 20.274 30.2141 20.2845 30.3714 20.3075C30.4827 20.3221 30.5892 20.3618 30.6828 20.4237C30.7759 20.494 30.8527 20.5836 30.9082 20.6862C30.9891 20.8326 31.0623 20.983 31.1277 21.137C31.2415 21.3972 31.3655 21.6531 31.4995 21.9048C31.6335 22.1565 31.7655 22.4125 31.8956 22.6727C31.9691 22.8276 32.0405 22.9825 32.1094 23.1374C32.1783 23.2923 32.2495 23.4425 32.3231 23.5881C32.3874 23.702 32.4544 23.8115 32.5241 23.9169C32.5926 24.0226 32.6599 24.1283 32.725 24.234C32.9039 24.4942 33.0848 24.7583 33.2675 25.0263L33.8589 25.8918C34.3236 24.974 34.7765 24.0702 35.218 23.1804C35.6594 22.2905 36.1125 21.3825 36.5772 20.4562C36.6901 20.4385 36.8017 20.414 36.9117 20.383C37.0329 20.3501 37.158 20.3337 37.2835 20.3342C37.9031 20.318 38.5164 20.304 39.1236 20.2924C39.7308 20.2808 40.3441 20.2746 40.9637 20.2738C41.1123 20.2718 41.2604 20.2922 41.4029 20.3342C41.471 20.3595 41.5303 20.4041 41.5736 20.4624C41.6169 20.5208 41.6423 20.5905 41.6468 20.663C41.5306 20.8744 41.4261 21.0696 41.3239 21.2438C41.2217 21.4181 41.1263 21.6051 41.038 21.7921C40.7127 22.4892 40.3716 23.1738 40.0146 23.846C39.6576 24.5182 39.2797 25.1823 38.8808 25.8383C38.5548 26.375 38.245 26.9171 37.9514 27.4646C37.6579 28.0122 37.3574 28.5586 37.05 29.1038C36.974 29.2254 36.9357 29.3667 36.9401 29.51C36.9444 29.6533 36.9911 29.7921 37.0744 29.9088C37.2122 30.1117 37.3424 30.3209 37.4648 30.5362C37.586 30.7511 37.7288 30.9531 37.891 31.1391C38.1394 31.4272 38.3695 31.7306 38.5799 32.0475C38.7875 32.3573 38.9846 32.6764 39.1713 33.0047C39.3579 33.3331 39.543 33.6623 39.7266 33.9922C39.9094 34.3252 40.0982 34.6501 40.2934 34.9668C40.6032 35.471 40.8936 35.981 41.1647 36.4968C41.4357 37.0126 41.7141 37.5307 41.9999 38.0511C41.807 38.2356 41.5728 38.3714 41.3168 38.4472C41.0587 38.518 40.7923 38.5528 40.5247 38.5506H40.3724C40.3214 38.5503 40.2705 38.5461 40.2202 38.5378C40.1145 38.5297 40.0135 38.5251 39.9159 38.5251H39.6116C39.2786 38.5251 38.9512 38.5351 38.6298 38.5552C38.3084 38.5754 37.9816 38.6017 37.6494 38.6343C37.6248 38.6344 37.6004 38.6368 37.5762 38.6412C37.552 38.645 37.5276 38.647 37.503 38.647C37.1923 38.6634 36.887 38.5607 36.6492 38.3601C36.4299 38.1586 36.2519 37.9164 36.1252 37.6468C35.7597 36.8832 35.4062 36.1196 35.0647 35.356L33.9925 32.9548L33.6439 33.5949C33.5386 33.7854 33.4414 33.9744 33.3523 34.1618C33.0681 34.7813 32.7897 35.399 32.5171 36.0147C32.2445 36.6304 31.9785 37.2519 31.719 37.8792C31.6771 37.9907 31.6544 38.1085 31.6517 38.2277C31.6409 38.3777 31.6219 38.527 31.5948 38.6749Z" fill="black"/>
</svg>
